<svg fill="none" xmlns="http://www.w3.org/2000/svg" viewBox="0 0 1024 1024"><path d="M494.299 999.442c-30.837-18.646-54.032-34.715-76.484-52.98-15.669-12.731-20.934-17.643-20.934-19.483 0-2.932 27.127-31.707 35.952-38.13 26.848-19.547 53.545-27.924 84.661-26.578 31.672 1.37 56.804 12.286 83.408 36.225 10.542 9.481 26.129 28.267 25.422 30.615-.742 2.412-39.107 32.354-58.045 45.288-22.453 15.346-54.137 34.711-56.584 34.601-.962-.04-8.79-4.34-17.396-9.558Zm156.542-108.524c-24.83-34.511-61.466-58.894-102.765-68.389-14.728-3.389-45.647-4.772-59.912-2.678-46.818 6.867-83.257 29.816-116.855 73.593-5.056 6.6-5.358 6.791-8.176 5.077-3.978-2.386-33.319-29.409-33.435-30.767-.255-3.338 28.773-37 42.249-48.982 32.403-28.8 68.25-45.897 109.595-52.243 17.918-2.755 51.087-2.158 69.005 1.244 18.126 3.439 41.333 11.639 57.871 20.46 29.886 15.93 62.66 45.733 81.831 74.406l3.502 5.216-8.976 8.771c-8.443 8.238-20.62 19.56-24.726 23-1.566 1.307-2.934 0-9.208-8.708Zm-360.215-66.193c-9.046-10.294-23.334-28.229-33.412-41.949l-9.127-12.452 4.523-5.191c28.205-32.405 60.886-59.225 95.307-78.239 38.063-21.019 75.824-34.004 117.389-40.388 20.272-3.11 70.06-3.136 90.459-.051 69.283 10.484 126.447 37.114 179.145 83.455 15.61 13.734 38.909 38.167 38.851 40.769-.069 3.503-45.287 60.761-47.897 60.647-.742-.039-3.711-3.224-6.576-7.108-7.839-10.586-27.74-30.984-40.44-41.442-40.358-33.281-84.034-52.536-134.587-59.339-14.195-1.917-49.544-1.93-65.038-.026-41.101 5.052-80.115 20.144-115.974 44.869-20.412 14.064-45.126 37.431-58.567 55.354-3.189 4.252-6.344 7.742-6.993 7.742-.661.013-3.839-2.982-7.063-6.651Zm-74.861-106.619c-8.524-13.912-27.637-47.471-27.637-48.525 0-.228 6.228-6.232 13.848-13.34 36.81-34.372 65.722-55.607 105.026-77.122 49.694-27.213 112.935-46.252 167.872-50.555 6.216-.482 11.307-1.104 11.307-1.384 0-.279-1.241-3.198-2.76-6.486-5.776-12.527-20.551-51.431-20.052-52.84.278-.799 11.25-7.628 24.366-15.155l23.844-13.696 24.703 14.216c13.592 7.806 24.876 14.381 25.097 14.584.208.203-4.663 13.125-10.832 28.712-6.17 15.586-11.459 28.977-11.76 29.739-.36.939 3.409 1.688 11.412 2.272 23.241 1.701 59.332 8.428 82.214 15.345 73.051 22.073 139.249 62.398 196.285 119.554l6.564 6.575-6.552 12.464c-8.385 15.993-27.231 47.497-29.759 49.756-1.717 1.536-3.085.546-11.876-8.555-5.451-5.661-15.239-15.054-21.745-20.867-59.634-53.348-122.097-83.696-198.408-96.376-22.464-3.745-81.193-4.075-104.852-.61-86.215 12.642-159.661 50.543-222.913 115.035-6.912 7.045-12.85 12.807-13.221 12.807-.36 0-4.941-6.993-10.171-15.548Zm-54.299-105.985c-26.233-58.095-53.754-148.405-70.083-230.058-9.87-49.286-22.858-134.061-21.246-138.643.324-.939 9.66-5.052 20.736-9.152 101.929-37.697 178.739-71.105 241.063-104.868 54.009-29.257 115.846-67.982 161.459-101.136L511.637 15l18.289 13.277c115.104 83.48 226.497 140.496 397.825 203.656 24.946 9.189 25.805 9.621 25.805 12.858-.012 4.442-5.011 42.076-9.371 70.521-15.773 102.824-41.554 199.264-75.812 283.557-6.959 17.11-13.059 30.324-14.451 31.263-.603.419-8.06-5.598-16.549-13.353-8.501-7.768-21.026-18.481-27.857-23.824-6.819-5.344-12.432-10.155-12.467-10.688-.035-.546 4.059-10.827 9.104-22.847 21.525-51.406 39.025-107.736 54.484-175.453 5.474-23.926 14.138-69.81 15.831-83.798l.765-6.333-11.992-4.278c-28.564-10.179-73.573-28.152-116.866-46.671-72.287-30.907-160.172-79.546-220.71-122.13-8.072-5.674-15.042-10.32-15.483-10.32-.44 0-6.645 3.935-13.789 8.758-61.698 41.582-140.525 86.007-203.638 114.743-36.428 16.603-113.631 47.903-141.825 57.511l-6.784 2.311.742 6.384c.406 3.516 3.085 19.242 5.973 34.956 14.868 81.158 40.857 171.036 66.731 230.882 3.746 8.657 6.808 15.866 6.808 16.031 0 .153-7.434 6.588-16.527 14.28-9.092 7.692-21.478 18.607-27.543 24.243-6.066 5.648-11.331 10.268-11.714 10.281-.382.013-4.499-8.402-9.15-18.696Zm101.651-63.464c-15.587-34.144-39.802-111.684-52.826-169.132-9.127-40.262-11.69-54.325-10.148-55.569.731-.597 8.884-4.1 18.139-7.806 92.408-37 187.692-86.07 271.506-139.837 11.864-7.603 21.884-13.835 22.255-13.835.371 0 9.452 5.788 20.168 12.858 78.166 51.583 151.091 89.471 258.981 134.531 35.059 14.647 33.633 14.025 33.633 14.711 0 1.548-10.89 53.233-13.453 63.832-9.441 39.018-19.519 74.012-31.394 108.993-8.42 24.802-21.119 57.283-22.395 57.283-.464 0-5.822-2.552-11.911-5.661-9.486-4.849-30.141-14.648-45.218-21.438l-4.325-1.955 4.163-10.535c7.364-18.684 18.591-50.606 25.259-71.905 8.663-27.683 18.579-66.206 17.35-67.399-.545-.52-7.515-3.693-15.494-7.044-70.385-29.613-163.755-78.747-206.585-108.74l-8.837-6.181-14.357 9.025c-62.962 39.626-118.827 69.163-190 100.45-14.381 6.321-26.547 11.894-27.045 12.376-2.563 2.488 23.183 87.517 40.301 133.122 2.98 7.933 5.172 15.092 4.882 15.917-.29.838-7.759 4.861-16.607 8.948-8.838 4.087-22.024 10.497-29.295 14.229-7.272 3.732-13.395 6.791-13.604 6.791-.22 0-1.624-2.717-3.143-6.029Zm101.582-51.47c-11.946-31.592-27.915-81.119-29.899-92.67-.684-3.973-.452-4.417 3.132-5.953 2.122-.914 16.642-7.933 32.275-15.599 50.055-24.561 93.881-48.563 129.659-70.991l11.945-7.489 5.451 3.452c33.644 21.299 72.124 43.156 110.407 62.716 17.895 9.151 55.041 26.769 60.017 28.457 1.438.495 2.609 1.396 2.609 2.018 0 2.805-13.847 47.344-21.49 69.151-11.307 32.265-14.473 39.982-16.352 39.982-.87 0-8.489-1.968-16.944-4.366-8.466-2.399-22.429-5.915-31.035-7.819-8.605-1.904-16.062-3.846-16.549-4.303-.487-.457 2.806-11.246 7.318-23.99 4.511-12.743 8.037-23.735 7.828-24.433-.22-.698-11.864-7.108-25.874-14.254-14.021-7.134-34.467-17.935-45.45-23.99l-19.959-10.992-24.691 13.226c-13.58 7.286-34.351 18.037-46.146 23.901-18.845 9.367-21.42 10.992-21.177 13.416.163 1.523 3.677 12.135 7.806 23.583 4.14 11.449 7.665 21.502 7.839 22.327.198.939-2.783 2.209-7.805 3.338-4.465 1.003-18.753 4.646-31.753 8.086-13.001 3.452-24.216 6.27-24.935 6.257-.719 0-3.514-5.889-6.227-13.061Z" fill="#000"/></svg>